<svg width="56" height="61" viewBox="0 0 56 61" fill="none" xmlns="http://www.w3.org/2000/svg">
<path d="M28 56.003C42.2488 56.003 53.7998 44.4842 53.7998 30.2749C53.7998 16.0657 42.2488 4.54688 28 4.54688C13.7513 4.54688 2.20032 16.0657 2.20032 30.2749C2.20032 44.4842 13.7513 56.003 28 56.003Z" fill="#A7030E"/>
<path d="M26.3059 40.3063L26.3725 40.3222C27.4949 40.5909 29.085 41.1804 29.7397 41.4415V40.8259H31.4233C31.4359 39.4226 31.5296 38.0212 31.7039 36.6286C31.8253 35.708 31.9573 34.8399 32.0862 33.9923C32.255 32.8821 32.4184 31.8073 32.5457 30.6964C32.7253 29.1294 32.7702 26.9468 32.7702 26.0513L32.4754 25.8676C32.4577 25.8566 32.4428 25.8415 32.432 25.8236C32.4212 25.8058 32.4148 25.7856 32.4133 25.7648C32.4117 25.744 32.4151 25.7231 32.4232 25.7039C32.4313 25.6846 32.4438 25.6676 32.4598 25.6541L33.4063 24.8517C33.4304 24.8313 33.4609 24.8201 33.4925 24.8201H34.7995C34.83 24.8201 34.8595 24.8306 34.8832 24.8497L35.8802 25.6545C35.8966 25.6678 35.9097 25.6848 35.9182 25.7041C35.9268 25.7235 35.9305 25.7446 35.9293 25.7657C35.928 25.7868 35.9216 25.8072 35.9108 25.8254C35.9 25.8436 35.8849 25.8589 35.867 25.8701L35.5762 26.0513L35.5381 26.0664C35.5381 26.9618 35.583 29.2209 35.7626 30.7879C35.8899 31.8988 36.0533 32.9737 36.2221 34.0839C36.351 34.9314 36.483 35.7995 36.6044 36.7201C36.7779 38.0759 36.8716 39.4407 36.885 40.8074L38.5366 40.8259C39.3753 40.0063 40.1664 39.1777 40.8764 38.3614C43.5326 35.3075 47.0285 30.6158 46.7257 25.1505C46.5743 22.3167 45.3887 19.6595 43.4239 17.75C41.3468 15.7224 38.5401 14.6887 35.5219 14.839C32.0686 15.0118 29.45 17.3297 28.0638 18.8934C26.6819 17.3258 24.0687 15.0017 20.6154 14.8184C17.6003 14.6603 14.7893 15.6845 12.7068 17.7064C10.7376 19.6104 9.54602 22.2642 9.38816 25.0974C9.07164 30.5619 12.5565 35.264 15.2052 38.3255C15.5331 38.7046 15.8772 39.0858 16.2377 39.4689C20.8769 39.0054 24.8575 39.9592 26.3059 40.3063Z" fill="white"/>
<path d="M32.5457 47.2617C34.5111 47.0575 35.913 46.1611 36.3619 45.5828C35.9838 45.7885 34.6327 46.1925 32.1172 46.2916C31.5917 46.6838 31.0779 47.0544 30.5829 47.3988C31.268 47.3756 31.9262 47.3261 32.5457 47.2617Z" fill="white"/>
<path d="M15.2047 41.8893C12.2415 41.5311 8.80697 42.9339 7.46008 43.6801C10.6589 42.8966 14.419 43.2884 15.7659 43.6801C17.1128 44.0719 20.031 45.0792 23.2299 46.3105C23.6796 46.4836 24.133 46.6333 24.5899 46.7594C23.1291 45.6931 21.5501 44.4355 20.0183 43.0934C18.4677 42.5018 16.8517 42.0976 15.2047 41.8893Z" fill="white"/>
<path d="M16.2377 39.4688C16.1927 39.4732 16.1476 39.4779 16.1025 39.4826C12.2863 39.8856 8.60107 42.001 7.23547 43.0084C7.40836 43.0084 7.97397 42.776 9.22966 42.2603C9.6045 42.1062 10.0408 41.927 10.5466 41.7212C12.473 40.9371 14.4268 40.51 17.4885 40.7479C17.0571 40.3228 16.6386 39.8954 16.2377 39.4688Z" fill="white"/>
<path d="M24.5897 46.7593C25.5767 47.4798 26.5096 48.1131 27.3376 48.6264L28.0268 49.0526L28.7174 48.6274C29.2939 48.2721 29.9216 47.8589 30.5828 47.3988C28.7079 47.4623 26.6309 47.3281 24.5897 46.7593Z" fill="white"/>
<path d="M38.9995 42.337V40.8259H38.5366C36.916 42.3989 35.2135 43.8858 33.4362 45.2803C33.7572 45.3032 34.0779 45.3115 34.3976 45.3031C36.5302 45.2471 39.3362 44.2398 41.7493 43.2884C43.6799 42.5273 45.3598 40.9938 45.9584 40.3223C45.5094 40.5648 44.1176 41.1841 42.1422 41.7214C40.1667 42.2586 39.2239 42.3557 38.9995 42.337Z" fill="white"/>
<path d="M22.1074 41.4416C21.3279 41.2387 18.7976 40.8497 17.4886 40.748C18.2966 41.5442 19.1498 42.3324 20.0183 43.0934C20.9696 43.449 21.7873 43.818 22.4591 44.1212L22.4592 44.1214L22.46 44.1217C22.7427 44.2493 22.9998 44.3652 23.2298 44.4636C24.8012 45.1352 27.7195 46.3664 31.4234 46.3105C31.6638 46.3069 31.8951 46.3006 32.1173 46.2918C32.5504 45.9684 32.9914 45.6304 33.4363 45.2803C30.741 45.0879 28.0241 43.8651 25.738 42.8364C24.3288 42.2021 22.887 41.6444 22.1074 41.4416Z" fill="white"/>
<path d="M32.8263 26.5815L6.44983 23.2236V29.8834L32.8263 27.7567V26.5815Z" fill="#A7030E"/>
<path d="M52.3001 24.5667L35.3337 26.6106V27.7225L52.3001 29.6594V24.5667Z" fill="#A7030E"/>
<path d="M34.0001 26.1902H33.2705V27.981H34.0001V26.1902Z" fill="white"/>
<path d="M35.1226 26.1902H34.3931V27.981H35.1226V26.1902Z" fill="white"/>
</svg>
