<svg width="48" height="37" viewBox="0 0 48 37" fill="none" xmlns="http://www.w3.org/2000/svg">
<path d="M8.69978 36.919V34.4635C8.69978 33.5242 8.12332 32.9091 7.13373 32.9091C6.63893 32.9091 6.1009 33.0712 5.73101 33.6053C5.44278 33.1571 5.02964 32.9091 4.40995 32.9091C3.99682 32.9091 3.58369 33.0331 3.25703 33.4813V32.9902H2.39233V36.919H3.25703V34.7496C3.25703 34.0534 3.62692 33.7245 4.20338 33.7245C4.77984 33.7245 5.06808 34.0916 5.06808 34.7496V36.919H5.93277V34.7496C5.93277 34.0534 6.3459 33.7245 6.87912 33.7245C7.45559 33.7245 7.74382 34.0916 7.74382 34.7496V36.919H8.69978ZM21.526 32.9902H20.1233V31.8029H19.2586V32.9902H18.4756V33.7674H19.2586V35.5697C19.2586 36.4708 19.6285 37.0001 20.6181 37.0001C20.988 37.0001 21.4011 36.8761 21.6894 36.714L21.4396 35.975C21.1898 36.1371 20.9015 36.18 20.695 36.18C20.2818 36.18 20.1185 35.9321 20.1185 35.5268V33.7674H21.5212V32.9902H21.526ZM28.8663 32.9043C28.3715 32.9043 28.0401 33.1523 27.8335 33.4765V32.9854H26.9688V36.9143H27.8335V34.7019C27.8335 34.0487 28.1217 33.6768 28.6598 33.6768C28.8231 33.6768 29.0296 33.7197 29.1978 33.7578L29.4476 32.9377C29.2746 32.9043 29.0297 32.9043 28.8663 32.9043ZM17.7742 33.3144C17.3611 33.0283 16.7847 32.9043 16.165 32.9043C15.1754 32.9043 14.5172 33.3955 14.5172 34.1726C14.5172 34.8259 15.012 35.1978 15.8767 35.317L16.2899 35.3599C16.7414 35.4409 16.9912 35.5649 16.9912 35.7699C16.9912 36.056 16.6598 36.2611 16.0833 36.2611C15.5068 36.2611 15.0505 36.056 14.7622 35.851L14.3491 36.5042C14.8007 36.8332 15.4204 36.9953 16.0401 36.9953C17.193 36.9953 17.8559 36.4613 17.8559 35.727C17.8559 35.0309 17.3179 34.6638 16.4964 34.5398L16.0833 34.4969C15.7134 34.454 15.4252 34.3729 15.4252 34.1297C15.4252 33.8437 15.7134 33.6815 16.1698 33.6815C16.6646 33.6815 17.1594 33.8866 17.4092 34.0105L17.7742 33.3144ZM40.7799 32.9043C40.2851 32.9043 39.9536 33.1523 39.747 33.4765V32.9854H38.8823V36.9143H39.747V34.7019C39.747 34.0487 40.0353 33.6768 40.5733 33.6768C40.7366 33.6768 40.9432 33.7197 41.1113 33.7578L41.3611 32.9473C41.193 32.9043 40.948 32.9043 40.7799 32.9043ZM29.731 34.9546C29.731 36.1418 30.5573 37.0001 31.8351 37.0001C32.4116 37.0001 32.8247 36.8761 33.2378 36.5519L32.8247 35.8558C32.4932 36.1037 32.1666 36.2229 31.7919 36.2229C31.0905 36.2229 30.5957 35.7318 30.5957 34.9546C30.5957 34.2156 31.0905 33.7245 31.7919 33.6863C32.1618 33.6863 32.4932 33.8103 32.8247 34.0534L33.2378 33.3573C32.8247 33.0283 32.4116 32.9091 31.8351 32.9091C30.5573 32.9043 29.731 33.7674 29.731 34.9546ZM37.7294 34.9546V32.9902H36.8647V33.4813C36.5765 33.1141 36.1634 32.9091 35.6253 32.9091C34.5108 32.9091 33.6461 33.7674 33.6461 34.9546C33.6461 36.1418 34.5108 37.0001 35.6253 37.0001C36.2018 37.0001 36.6149 36.7951 36.8647 36.4279V36.919H37.7294V34.9546ZM34.5541 34.9546C34.5541 34.2585 35.0056 33.6863 35.7502 33.6863C36.4516 33.6863 36.9464 34.2203 36.9464 34.9546C36.9464 35.6507 36.4516 36.2229 35.7502 36.2229C35.0104 36.18 34.5541 35.646 34.5541 34.9546ZM24.2066 32.9043C23.0537 32.9043 22.2274 33.7245 22.2274 34.9498C22.2274 36.18 23.0537 36.9953 24.2498 36.9953C24.8263 36.9953 25.4027 36.8332 25.8591 36.4613L25.446 35.8462C25.1145 36.0942 24.7014 36.2563 24.2931 36.2563C23.755 36.2563 23.2218 36.0083 23.0969 35.317H26.0224C26.0224 35.193 26.0224 35.112 26.0224 34.988C26.0609 33.7245 25.3163 32.9043 24.2066 32.9043ZM24.2066 33.6434C24.7446 33.6434 25.1145 33.9724 25.1962 34.5827H23.1353C23.217 34.0534 23.5869 33.6434 24.2066 33.6434ZM45.6894 34.9546V31.4358H44.8247V33.4813C44.5365 33.1141 44.1233 32.9091 43.5853 32.9091C42.4708 32.9091 41.6061 33.7674 41.6061 34.9546C41.6061 36.1418 42.4708 37.0001 43.5853 37.0001C44.1618 37.0001 44.5749 36.7951 44.8247 36.4279V36.919H45.6894V34.9546ZM42.514 34.9546C42.514 34.2585 42.9656 33.6863 43.7102 33.6863C44.4116 33.6863 44.9064 34.2203 44.9064 34.9546C44.9064 35.6507 44.4116 36.2229 43.7102 36.2229C42.9656 36.18 42.514 35.646 42.514 34.9546ZM13.5661 34.9546V32.9902H12.7014V33.4813C12.4132 33.1141 12 32.9091 11.462 32.9091C10.3475 32.9091 9.48281 33.7674 9.48281 34.9546C9.48281 36.1418 10.3475 37.0001 11.462 37.0001C12.0385 37.0001 12.4516 36.7951 12.7014 36.4279V36.919H13.5661V34.9546ZM10.3523 34.9546C10.3523 34.2585 10.8039 33.6863 11.5485 33.6863C12.2498 33.6863 12.7446 34.2203 12.7446 34.9546C12.7446 35.6507 12.2498 36.2229 11.5485 36.2229C10.8039 36.18 10.3523 35.646 10.3523 34.9546Z" fill="black"/>
<path d="M30.4756 3.15161H17.486V26.3148H30.4756V3.15161Z" fill="#FF5A00"/>
<path d="M18.3507 14.7332C18.3507 10.0272 20.5797 5.85039 24 3.15168C21.4828 1.18724 18.3074 0 14.8439 0C6.63891 0 0 6.58943 0 14.7332C0 22.8771 6.63891 29.4665 14.8439 29.4665C18.3074 29.4665 21.4828 28.2793 24 26.3148C20.5749 23.6543 18.3507 19.4393 18.3507 14.7332Z" fill="#EB001B"/>
<path d="M48 14.7332C48 22.8771 41.3611 29.4665 33.1561 29.4665C29.6926 29.4665 26.5172 28.2793 24 26.3148C27.4636 23.6113 29.6493 19.4393 29.6493 14.7332C29.6493 10.0272 27.4203 5.85039 24 3.15168C26.5124 1.18724 29.6877 0 33.1513 0C41.3611 0 48 6.63235 48 14.7332Z" fill="#F79E1B"/>
</svg>
