<svg width="48" height="16" viewBox="0 0 48 16" fill="none" xmlns="http://www.w3.org/2000/svg">
<g clip-path="url(#clip0_64_2354)">
<path d="M20.8 15.7692H16.9116L19.3437 0.280762H23.2318L20.8 15.7692Z" fill="#00579F"/>
<path d="M34.8955 0.659404C34.1286 0.346018 32.9121 0 31.408 0C27.5681 0 24.8641 2.10895 24.8475 5.12412C24.8157 7.34871 26.7835 8.58429 28.2554 9.32604C29.7597 10.084 30.2711 10.5787 30.2711 11.2543C30.2558 12.2919 29.0555 12.7702 27.936 12.7702C26.3836 12.7702 25.5518 12.5236 24.2877 11.9464L23.7757 11.6989L23.2316 15.1757C24.1435 15.6036 25.8237 15.9834 27.5681 16C31.6481 16 34.3042 13.9237 34.3357 10.7105C34.3512 8.94739 33.3121 7.59639 31.0718 6.49242C29.7119 5.78374 28.879 5.30589 28.879 4.58079C28.8949 3.9216 29.5834 3.24643 31.1186 3.24643C32.3827 3.21336 33.3115 3.52631 34.015 3.83948L34.3667 4.00394L34.8955 0.659404Z" fill="#00579F"/>
<path d="M40.0635 10.2822C40.3837 9.39239 41.6159 5.94865 41.6159 5.94865C41.5997 5.98172 41.9355 5.04244 42.1275 4.46581L42.3992 5.80039C42.3992 5.80039 43.1355 9.50781 43.2954 10.2822C42.6877 10.2822 40.8315 10.2822 40.0635 10.2822ZM44.8631 0.280762H41.8555C40.928 0.280762 40.2234 0.560641 39.8232 1.56584L34.0476 15.769H38.1275C38.1275 15.769 38.7992 13.8573 38.9436 13.4456C39.3912 13.4456 43.3601 13.4456 43.9358 13.4456C44.0475 13.9894 44.3998 15.769 44.3998 15.769H48L44.8631 0.280762Z" fill="#00579F"/>
<path d="M13.6639 0.280762L9.85596 10.8424L9.43985 8.70038C8.73584 6.22876 6.5279 3.5434 4.06396 2.20817L7.55192 15.7528H11.6637L17.7755 0.280762H13.6639Z" fill="#00579F"/>
<path d="M6.31995 0.280762H0.0640009L0 0.59371C4.88004 1.87901 8.11199 4.97718 9.43985 8.70103L8.07988 1.58271C7.85598 0.593491 7.16792 0.313392 6.31995 0.280762Z" fill="#FAA61A"/>
</g>
<defs>
<clipPath id="clip0_64_2354">
<rect width="48" height="16" fill="white"/>
</clipPath>
</defs>
</svg>
