<svg width="12" height="13" viewBox="0 0 12 13" fill="none" xmlns="http://www.w3.org/2000/svg">
<g clip-path="url(#clip0_6_1994)">
<path d="M4.87026 0.560969C2.68002 0.990344 0.916353 2.75612 0.487447 4.94612C-0.160364 8.24847 2.09643 11.1852 5.15385 11.6282C5.5994 11.6958 6.00158 11.3408 6.00158 10.8901L6.00159 10.8746C6.00159 10.5057 5.73346 10.1977 5.37252 10.1424C3.39557 9.83816 1.87565 8.1237 1.87565 6.05957C1.87565 3.64785 3.95245 1.71191 6.40846 1.94863C8.55393 2.1565 10.1256 4.0873 10.1256 6.24238V6.62113C10.1256 7.13886 9.70517 7.5598 9.18814 7.5598C8.67111 7.5598 8.25041 7.13886 8.25041 6.62113V3.80629C8.25041 3.59893 8.08257 3.43082 7.87518 3.43082L7.12565 3.4309C6.95458 3.4309 6.81627 3.5479 6.77127 3.70465C6.18885 3.41989 5.50002 3.32074 4.75424 3.58498C3.84604 3.90678 3.15768 4.73131 3.02643 5.68592C2.80417 7.30334 4.05323 8.68591 5.62565 8.68591C6.24533 8.68591 6.8076 8.46223 7.25666 8.10279C7.81916 8.83638 8.78549 9.24396 9.82072 8.98146C10.9031 8.73057 11.6249 7.6712 11.6038 6.57198V6.08214C11.6038 2.58526 8.46556 -0.143609 4.87026 0.560969ZM5.60385 7.20714C4.98346 7.20714 4.47885 6.70183 4.47885 6.08097C4.47885 5.46011 4.98346 4.95479 5.60385 4.95479C6.22424 4.95479 6.72885 5.46011 6.72885 6.08097C6.72885 6.70183 6.24604 7.20714 5.60385 7.20714Z" fill="white"/>
</g>
<defs>
<clipPath id="clip0_6_1994">
<rect width="12" height="12" fill="white" transform="translate(0 0.0751953)"/>
</clipPath>
</defs>
</svg>
