<svg width="56" height="62" viewBox="0 0 56 62" fill="none" xmlns="http://www.w3.org/2000/svg">
<g clip-path="url(#clip0_6_1627)">
<path d="M28 56.159C42.2488 56.159 53.7998 44.6081 53.7998 30.3593C53.7998 16.1105 42.2488 4.55957 28 4.55957C13.7513 4.55957 2.20032 16.1105 2.20032 30.3593C2.20032 44.6081 13.7513 56.159 28 56.159Z" fill="#A7030E"/>
<path d="M4.55136 12.0491L3.95837 12.8331L4.44635 13.2021L4.75217 12.7979C4.85453 12.6489 5.00794 12.5427 5.18337 12.4992C5.26318 12.4844 5.34527 12.4873 5.4238 12.5079C5.50233 12.5284 5.57537 12.566 5.6377 12.618C5.70533 12.6645 5.76199 12.7253 5.80373 12.796C5.84547 12.8667 5.87129 12.9456 5.87939 13.0273C5.8884 13.2067 5.8306 13.3832 5.71717 13.5225L5.24585 14.1456L3.62012 12.9159L4.37599 11.9165L4.55136 12.0491ZM4.62174 13.3347L5.23358 13.7975L5.53007 13.4056C5.6043 13.319 5.64129 13.2066 5.633 13.0928C5.62593 13.0404 5.60794 12.9901 5.58018 12.945C5.55242 12.9 5.51553 12.8613 5.47187 12.8314C5.43327 12.799 5.38817 12.7751 5.3396 12.7616C5.29103 12.748 5.24012 12.745 5.19028 12.7527C5.08219 12.7775 4.98742 12.8422 4.92492 12.9338L4.62174 13.3347Z" fill="#A7030E"/>
<path d="M6.95546 9.03247L8.41941 10.4508L8.23241 10.644L6.9263 9.37851L6.41771 9.90332L6.97299 10.492C7.11783 10.6388 7.24557 10.8015 7.35378 10.9769C7.41715 11.0788 7.4481 11.1975 7.44256 11.3173C7.42669 11.4317 7.37271 11.5374 7.28933 11.6173L7.22794 11.6806L7.07011 11.5277L7.10715 11.4855C7.15835 11.4305 7.18645 11.3579 7.18563 11.2828C7.17464 11.1949 7.14107 11.1113 7.08819 11.0403C6.98995 10.9026 6.88094 10.7729 6.76221 10.6524L6.08154 9.93445L6.95546 9.03247Z" fill="#A7030E"/>
<path d="M10.4649 7.96525L9.79934 8.50048L9.98414 9.03636L9.7681 9.21009L9.09729 7.13375L9.28056 6.98633L11.1657 8.08615L10.9508 8.259L10.4649 7.96525ZM9.72492 8.2783L10.265 7.84402L9.39696 7.31855L9.72492 8.2783Z" fill="#A7030E"/>
<path d="M12.7404 4.84749L11.9084 5.37077L12.8767 6.91024L12.6481 7.05416L11.5627 5.32857L12.6233 4.66138L12.7404 4.84749Z" fill="#A7030E"/>
<path d="M16.25 3.99797C16.3312 4.15811 16.3773 4.33376 16.3851 4.51314C16.3918 4.66455 16.3534 4.81454 16.2746 4.94401C16.2153 5.04089 16.1357 5.12379 16.0414 5.18705C15.947 5.25031 15.8401 5.29243 15.7279 5.31052C15.6158 5.32862 15.5011 5.32226 15.3916 5.29188C15.2822 5.2615 15.1806 5.20782 15.0938 5.13452C14.9604 5.02149 14.8531 4.88088 14.7793 4.72238L14.7157 4.58975C14.6355 4.43035 14.5904 4.25555 14.5836 4.07722C14.5758 3.92494 14.6141 3.77384 14.6937 3.64375C14.7733 3.51367 14.8903 3.41068 15.0294 3.34831C15.1656 3.27981 15.3186 3.2521 15.4701 3.26852C15.6214 3.28804 15.7635 3.35253 15.8778 3.45365C16.0125 3.57235 16.1204 3.71827 16.1945 3.88178L16.25 3.99797ZM15.9521 3.99479C15.8788 3.81221 15.7484 3.6582 15.5804 3.5557C15.5109 3.51891 15.4334 3.49977 15.3547 3.49994C15.276 3.50011 15.1986 3.5196 15.1292 3.55668C15.0579 3.58756 14.9953 3.63545 14.9469 3.69614C14.8984 3.75683 14.8656 3.82847 14.8512 3.9048C14.8238 4.09394 14.8577 4.28689 14.9479 4.45537L15.0126 4.59052C15.0869 4.77129 15.2172 4.9235 15.3843 5.0249C15.4539 5.05984 15.5304 5.07865 15.6083 5.07992C15.6861 5.0812 15.7632 5.06491 15.8339 5.03227C15.9046 4.99962 15.9669 4.95147 16.0164 4.89139C16.0659 4.8313 16.1012 4.76084 16.1197 4.68522C16.1451 4.49436 16.1093 4.30038 16.0175 4.13115L15.9521 3.99479Z" fill="#A7030E"/>
<path d="M20.2947 4.05553L20.0409 4.1396L19.8839 3.6651L18.4949 4.1248L18.6523 4.60062L18.3972 4.68513L18.1693 4.00105L18.3275 3.94866C18.3831 3.80755 18.4081 3.65625 18.401 3.50474C18.3961 3.3186 18.3693 3.13369 18.3211 2.95384L18.0896 2.11171L19.2473 1.72852L19.8188 3.45509L20.0713 3.37146L20.2947 4.05553ZM18.6186 3.85232L19.5623 3.53993L19.0599 2.02205L18.4046 2.23897L18.5651 2.8176C18.6222 3.01243 18.6558 3.21338 18.6653 3.41618C18.6727 3.56311 18.6569 3.71029 18.6186 3.85232Z" fill="#A7030E"/>
<path d="M22.212 3.079L21.9493 3.13555L21.5204 1.14274L21.7831 1.08618L22.212 3.079Z" fill="#A7030E"/>
<path d="M25.2598 0.561265L25.5271 0.532657L25.7445 2.55945L25.4772 2.58817L25.3097 1.02623L24.4791 2.69515L24.2104 2.72398L23.993 0.697181L24.2617 0.668353L24.4292 2.23018L25.2598 0.561265ZM25.1305 0.0639648C25.138 0.11471 25.1342 0.166483 25.1193 0.215592C25.1045 0.2647 25.0791 0.309936 25.0448 0.348073C24.9685 0.42816 24.8648 0.476407 24.7544 0.483113C24.6448 0.499948 24.5329 0.474563 24.4412 0.412086C24.3996 0.382246 24.365 0.343597 24.34 0.298887C24.315 0.254177 24.3002 0.204506 24.2966 0.153407L24.5068 0.130936C24.5095 0.187105 24.5344 0.239892 24.5761 0.277704C24.5987 0.294808 24.6247 0.307044 24.6523 0.313646C24.6799 0.320247 24.7086 0.321072 24.7365 0.316068C24.7644 0.314723 24.7918 0.307781 24.817 0.295655C24.8421 0.283528 24.8646 0.266465 24.8831 0.245479C24.9 0.222996 24.9122 0.19729 24.9188 0.169941C24.9254 0.142591 24.9264 0.114174 24.9217 0.0864342L25.1305 0.0639648Z" fill="#A7030E"/>
<path d="M29.3122 2.49997L29.0421 2.49493L29.0596 1.55283L28.0322 1.53376L28.0146 2.47585L27.7458 2.47081L27.7838 0.432617L28.0525 0.43766L28.0363 1.31399L29.0636 1.33306L29.08 0.456732L29.3501 0.461774L29.3122 2.49997Z" fill="#A7030E"/>
<path d="M32.8653 0.830056L33.1315 0.868858L32.8373 2.88601L32.5712 2.8472L32.798 1.29283L31.5779 2.7023L31.3104 2.66339L31.6046 0.64624L31.8721 0.685152L31.6454 2.23964L32.8653 0.830056Z" fill="#A7030E"/>
<path d="M36.5866 1.68345L36.8455 1.7558L36.2965 3.71902L36.0376 3.64667L36.4607 2.13373L35.0709 3.37626L34.8107 3.30359L35.3596 1.34037L35.6198 1.41315L35.1967 2.92599L36.5866 1.68345ZM36.6506 1.17366C36.6387 1.22356 36.616 1.27025 36.5841 1.31037C36.5522 1.3505 36.5118 1.38309 36.4658 1.40581C36.3652 1.45191 36.251 1.45825 36.1459 1.42357C36.0379 1.39858 35.9435 1.33355 35.8816 1.24162C35.8539 1.1985 35.8361 1.1498 35.8294 1.099C35.8227 1.0482 35.8274 0.996555 35.843 0.947754L36.0466 1.00475C36.0375 1.03105 36.0337 1.0589 36.0353 1.08669C36.037 1.11447 36.0442 1.14165 36.0565 1.16665C36.0712 1.19096 36.0907 1.21198 36.1139 1.22835C36.1371 1.24473 36.1635 1.25611 36.1913 1.26179C36.2176 1.272 36.2458 1.27625 36.274 1.27425C36.3021 1.27225 36.3295 1.26403 36.3541 1.2502C36.3787 1.23636 36.3999 1.21725 36.4162 1.19424C36.4325 1.17122 36.4435 1.14488 36.4485 1.1171L36.6506 1.17366Z" fill="#A7030E"/>
<path d="M41.99 4.12323L42.0284 4.1435C42.1593 4.21139 42.2705 4.3118 42.3513 4.43507C42.4294 4.55322 42.4729 4.69091 42.4767 4.83251C42.4804 4.97861 42.4456 5.12312 42.3759 5.25155C42.309 5.38288 42.2088 5.49439 42.0854 5.57501C41.9671 5.6525 41.8296 5.69543 41.6882 5.69897C41.5422 5.70259 41.3977 5.66883 41.2684 5.60088L41.225 5.57797L41.0972 5.82086L40.8668 5.69963L40.9946 5.45685L40.9597 5.43854C40.8275 5.37111 40.715 5.27049 40.6333 5.14654C40.5547 5.02825 40.5111 4.89019 40.5075 4.74822C40.5064 4.6012 40.5416 4.45619 40.61 4.32605C40.6785 4.19592 40.7779 4.08468 40.8997 4.00222C41.0188 3.92485 41.1573 3.88257 41.2993 3.88022C41.4477 3.87734 41.5943 3.91303 41.7248 3.9838L41.7597 4.00211L41.8938 3.74683L42.1242 3.86805L41.99 4.12323ZM41.6266 4.17091C41.5603 4.13168 41.4865 4.10688 41.41 4.09813C41.3335 4.08939 41.2561 4.09689 41.1827 4.12016C41.0295 4.17929 40.9057 4.2963 40.838 4.44592C40.7529 4.58625 40.7264 4.75444 40.7642 4.91417C40.7873 4.9881 40.8257 5.05633 40.8769 5.11446C40.9282 5.17258 40.991 5.21929 41.0614 5.25155L41.0934 5.26843L41.6612 4.18921L41.6266 4.17091ZM41.8916 4.31033L41.3241 5.38966L41.3587 5.40796C41.4252 5.44781 41.4995 5.47281 41.5766 5.48124C41.6537 5.48968 41.7317 5.48136 41.8052 5.45685C41.9566 5.39597 42.0787 5.27932 42.1466 5.13098C42.2295 4.99183 42.2558 4.8261 42.22 4.6681C42.1977 4.59299 42.1595 4.52357 42.108 4.46454C42.0564 4.40551 41.9928 4.35827 41.9214 4.32601L41.8916 4.31033Z" fill="#A7030E"/>
<path d="M45.3092 7.25415C45.2092 7.40325 45.0786 7.52929 44.926 7.62387C44.7973 7.7038 44.6477 7.74363 44.4963 7.7383C44.3828 7.73401 44.2715 7.70522 44.1701 7.6539C44.0688 7.60258 43.9797 7.52995 43.909 7.44099C43.8384 7.35203 43.7878 7.24884 43.7607 7.13849C43.7337 7.02814 43.7308 6.91325 43.7523 6.80168C43.7856 6.63003 43.8557 6.46765 43.9579 6.32576L44.0423 6.20552C44.1421 6.05751 44.2726 5.93269 44.4248 5.83953C44.5538 5.75816 44.7043 5.71769 44.8566 5.72344C45.009 5.72919 45.1561 5.78089 45.2785 5.87175C45.4049 5.95681 45.504 6.0767 45.5637 6.21692C45.6207 6.35846 45.634 6.51386 45.6018 6.66303C45.5642 6.83857 45.4897 7.00411 45.3833 7.14871L45.3092 7.25415ZM45.1662 6.99262C45.2895 6.83928 45.36 6.65027 45.3673 6.45367C45.3653 6.37502 45.3441 6.29804 45.3055 6.2295C45.2668 6.16097 45.2119 6.10297 45.1456 6.06061C45.0838 6.01357 45.0115 5.98241 44.9348 5.96983C44.8582 5.95726 44.7797 5.96366 44.7061 5.98848C44.5277 6.05711 44.376 6.18107 44.2731 6.34219L44.187 6.46474C44.0657 6.61802 43.9967 6.80614 43.9901 7.0015C43.9936 7.07926 44.0147 7.15522 44.0516 7.22374C44.0885 7.29225 44.1405 7.35155 44.2035 7.39721C44.2666 7.44286 44.3391 7.47371 44.4157 7.48745C44.4923 7.50119 44.5711 7.49746 44.646 7.47655C44.8249 7.40536 44.9766 7.2792 45.0792 7.11626L45.1662 6.99262Z" fill="#A7030E"/>
<path d="M47.416 10.2909L47.2163 10.109L47.8503 9.41214L47.0903 8.7205L46.4563 9.4174L46.2574 9.23655L47.6293 7.72876L47.8282 7.90972L47.2382 8.55796L47.9983 9.24949L48.5882 8.60125L48.7881 8.7831L47.416 10.2909Z" fill="#A7030E"/>
<path d="M49.6276 13.4643L49.4548 13.2603L49.8361 12.937L48.8899 11.8211L48.5076 12.1452L48.3337 11.9401L48.8829 11.4729L48.9905 11.5999C49.1422 11.5987 49.2918 11.5653 49.4296 11.502C49.6005 11.4278 49.762 11.3337 49.9108 11.2217L50.6051 10.6919L51.3936 11.622L50.0064 12.7982L50.1785 13.001L49.6276 13.4643ZM49.1889 11.8338L49.8317 12.592L51.0512 11.558L50.6049 11.0316L50.1283 11.397C49.969 11.5228 49.7952 11.6292 49.6107 11.7138C49.4773 11.7757 49.3349 11.8162 49.1889 11.8338V11.8338Z" fill="#A7030E"/>
<path d="M8.09177 50.5354C8.12486 50.5074 8.15045 50.4716 8.16622 50.4312C8.18199 50.3909 8.18744 50.3472 8.18209 50.3042C8.16672 50.2015 8.11881 50.1064 8.0454 50.0329C7.98305 49.9586 7.8979 49.9069 7.80316 49.8859C7.76302 49.8766 7.72119 49.8772 7.68136 49.8879C7.64154 49.8985 7.60496 49.9188 7.57485 49.947L7.23199 49.5684C7.32704 49.4805 7.44747 49.4248 7.57606 49.4095C7.71401 49.3947 7.85333 49.419 7.97821 49.4794C8.12012 49.545 8.24692 49.6393 8.35067 49.7563C8.5208 49.9236 8.63151 50.142 8.6659 50.3781C8.67487 50.4779 8.65926 50.5784 8.62046 50.6708C8.58166 50.7632 8.52083 50.8448 8.44329 50.9083C8.36167 50.9822 8.25877 51.0284 8.14931 51.0402C8.02691 51.053 7.90331 51.033 7.79122 50.9821C7.84546 51.1002 7.86269 51.2319 7.84065 51.36C7.81311 51.4864 7.74456 51.6002 7.64566 51.6836C7.57144 51.7552 7.4808 51.8074 7.38168 51.8357C7.28257 51.864 7.17802 51.8675 7.07722 51.846C6.83697 51.7891 6.62209 51.6548 6.46571 51.4638C6.35172 51.3418 6.26388 51.1978 6.20758 51.0407C6.15786 50.9088 6.14676 50.7654 6.17557 50.6274C6.20658 50.498 6.27724 50.3814 6.37769 50.294L6.72285 50.675C6.6905 50.7043 6.6657 50.7409 6.65056 50.7819C6.63543 50.8228 6.63041 50.8667 6.63593 50.91C6.64741 51.0155 6.69414 51.1139 6.76856 51.1895C6.84091 51.2789 6.9412 51.3414 7.05333 51.3669C7.0978 51.3765 7.14395 51.3753 7.18785 51.3633C7.23175 51.3513 7.27212 51.3289 7.30554 51.298C7.34699 51.2672 7.38077 51.2273 7.40425 51.1813C7.42773 51.1353 7.44028 51.0845 7.44091 51.0329C7.42639 50.9243 7.3755 50.8239 7.29655 50.748L7.09191 50.5221L7.38851 50.2536L7.59995 50.4869C7.76623 50.6655 7.93017 50.6816 8.09177 50.5354Z" fill="#A7030E"/>
<path d="M12.319 54.9996C12.1914 55.18 12.0255 55.3299 11.8331 55.4384C11.6655 55.5324 11.4739 55.5747 11.2823 55.5601C11.0897 55.5392 10.9062 55.4676 10.7503 55.3526C10.5945 55.2375 10.472 55.0832 10.3953 54.9054C10.3243 54.7266 10.3072 54.5309 10.3462 54.3425C10.3904 54.1288 10.4821 53.9277 10.6145 53.7542L10.6874 53.6558C10.8158 53.4747 10.9831 53.3246 11.177 53.2165C11.3456 53.1224 11.5383 53.0801 11.7308 53.0949C11.9232 53.116 12.1066 53.1877 12.2621 53.3029C12.4177 53.4181 12.5398 53.5726 12.616 53.7505C12.6863 53.9304 12.7021 54.127 12.6614 54.3158C12.6147 54.5322 12.5202 54.7355 12.385 54.9107L12.319 54.9996ZM11.97 54.6013C12.104 54.443 12.1877 54.2483 12.2105 54.0422C12.211 53.9648 12.1934 53.8883 12.1589 53.819C12.1244 53.7497 12.0741 53.6895 12.012 53.6432C11.95 53.5969 11.8779 53.5659 11.8016 53.5527C11.7253 53.5395 11.647 53.5444 11.573 53.567C11.3836 53.647 11.2225 53.7819 11.1104 53.9542L11.0385 54.0513C10.9065 54.2096 10.8236 54.403 10.8001 54.6078C10.7979 54.6857 10.8143 54.7631 10.848 54.8334C10.8818 54.9037 10.9318 54.9649 10.9941 55.0119C11.0563 55.059 11.1289 55.0904 11.2057 55.1036C11.2826 55.1169 11.3615 55.1115 11.4359 55.0881C11.6248 55.0063 11.7855 54.8708 11.8981 54.6985L11.97 54.6013Z" fill="#A7030E"/>
<path d="M14.7273 58.501L14.3149 58.2722L14.6105 57.7393L13.3036 57.0141L13.0087 57.5455L12.5859 57.311L13.0561 56.4076L13.2198 56.4984C13.365 56.4654 13.498 56.3926 13.6041 56.2882C13.7532 56.1462 13.8845 55.9867 13.9952 55.8131L14.588 54.8921L16.0081 55.68L15.0047 57.4887L15.2577 57.6292L14.7273 58.501ZM13.7319 56.7825L14.558 57.2409L15.3608 55.794L14.8116 55.4892L14.458 56.0387C14.2162 56.4043 13.9741 56.6522 13.7319 56.7825Z" fill="#A7030E"/>
<path d="M18.3103 58.2083L17.4 57.8439L17.1532 58.4602L18.2215 58.888L18.069 59.2689L16.5265 58.6512L17.448 56.3501L18.9872 56.9665L18.8336 57.3505L17.7684 56.924L17.5487 57.4724L18.459 57.837L18.3103 58.2083Z" fill="#A7030E"/>
<path d="M21.7123 59.489C21.6779 59.6036 21.6204 59.7099 21.5434 59.8015C21.4664 59.893 21.3715 59.9679 21.2644 60.0214C21.0319 60.1252 20.7694 60.1398 20.5268 60.0624C20.3886 60.0326 20.2591 59.9718 20.1479 59.8846C20.0367 59.7974 19.9468 59.6861 19.8849 59.559C19.7641 59.3053 19.7518 58.998 19.8481 58.6373L19.8871 58.4909C19.9386 58.2804 20.0356 58.0838 20.1712 57.9148C20.2888 57.7681 20.4474 57.6599 20.6268 57.6038C20.8398 57.5487 21.0643 57.5571 21.2726 57.6282C21.4808 57.6993 21.6636 57.8298 21.7985 58.0037C21.9308 58.212 21.9762 58.4639 21.925 58.7053L21.4315 58.5735C21.4649 58.4493 21.4508 58.3171 21.392 58.2027C21.3174 58.1006 21.2064 58.0309 21.082 58.0081C21.0116 57.9844 20.9364 57.9792 20.8635 57.9929C20.7907 58.0066 20.7225 58.0388 20.6655 58.0863C20.5269 58.2281 20.4323 58.407 20.3933 58.6014L20.345 58.7822C20.2783 58.9749 20.2666 59.1822 20.3112 59.3811C20.3358 59.4518 20.3786 59.5148 20.4354 59.5636C20.4921 59.6125 20.5606 59.6455 20.6342 59.6594C20.7545 59.7018 20.8864 59.697 21.0034 59.6461C21.1093 59.5807 21.1864 59.4774 21.2189 59.3572L21.7123 59.489Z" fill="#A7030E"/>
<path d="M25.3285 59.7101C25.304 59.9297 25.2312 60.1411 25.1153 60.3292C25.014 60.4925 24.8667 60.6222 24.6919 60.7021C24.5133 60.7769 24.318 60.8029 24.126 60.7776C23.934 60.7522 23.7522 60.6764 23.5991 60.5578C23.4505 60.4357 23.3409 60.2727 23.2839 60.0889C23.2191 59.8805 23.2022 59.6601 23.2343 59.4442L23.2505 59.3228C23.2753 59.1022 23.3491 58.8899 23.4666 58.7015C23.5688 58.5376 23.717 58.4075 23.8926 58.3273C24.0712 58.2527 24.2664 58.2269 24.4582 58.2525C24.65 58.2781 24.8316 58.3543 24.9844 58.4731C25.1329 58.5965 25.2418 58.761 25.2974 58.946C25.3613 59.1581 25.3769 59.3817 25.3432 59.6005L25.3285 59.7101ZM24.8305 59.5302C24.871 59.3269 24.8501 59.116 24.7704 58.9245C24.7335 58.8565 24.681 58.7981 24.6174 58.7541C24.5537 58.7101 24.4805 58.6817 24.4039 58.6712C24.3272 58.6607 24.2491 58.6684 24.1759 58.6937C24.1028 58.719 24.0366 58.7612 23.9827 58.8168C23.8557 58.9785 23.7799 59.1744 23.7651 59.3794L23.7491 59.4992C23.7099 59.7016 23.731 59.911 23.8096 60.1015C23.8453 60.1709 23.897 60.2306 23.9606 60.2759C24.0241 60.3211 24.0975 60.3505 24.1747 60.3616C24.2519 60.3726 24.3306 60.3651 24.4043 60.3395C24.478 60.314 24.5444 60.2711 24.5982 60.2146C24.724 60.0517 24.7992 59.8554 24.8145 59.65L24.8305 59.5302Z" fill="#A7030E"/>
<path d="M29.8131 59.7907C29.8215 60.0114 29.7808 60.2313 29.6941 60.4345C29.6183 60.6111 29.4919 60.7612 29.3308 60.866C29.1664 60.9701 28.9757 61.0252 28.781 61.0248C28.6034 61.0305 28.4272 60.9909 28.2692 60.9097C28.1163 60.8287 27.9879 60.7081 27.8975 60.5607C27.7976 60.3969 27.7356 60.2129 27.7159 60.0222L27.4316 60.0268L27.4476 61.0124L26.937 61.0206L26.8969 58.5422L27.4074 58.534L27.4252 59.6302L27.7009 59.6257C27.7033 59.4196 27.7509 59.2166 27.8404 59.031C27.9206 58.8648 28.0464 58.7249 28.2032 58.6275C28.3677 58.5313 28.5545 58.4799 28.7451 58.4783C28.9356 58.4767 29.1233 58.525 29.2894 58.6184C29.4546 58.7185 29.5866 58.865 29.6691 59.0396C29.7636 59.2398 29.8122 59.4586 29.8114 59.68L29.8131 59.7907ZM29.2938 59.6868C29.3039 59.4796 29.252 59.2741 29.1447 59.0966C29.0981 59.0348 29.0376 58.9849 28.9681 58.9508C28.8986 58.9167 28.8221 58.8995 28.7447 58.9005C28.6673 58.9015 28.5912 58.9207 28.5226 58.9566C28.454 58.9924 28.3948 59.0439 28.3498 59.1069C28.2481 59.2856 28.2021 59.4906 28.2179 59.6956L28.2198 59.8165C28.2113 60.0225 28.2632 60.2264 28.3691 60.4032C28.4147 60.4664 28.4748 60.5179 28.5443 60.5532C28.6139 60.5885 28.6908 60.6066 28.7688 60.6061C28.8468 60.6056 28.9235 60.5864 28.9926 60.5502C29.0616 60.514 29.121 60.4618 29.1658 60.3979C29.266 60.2181 29.3112 60.0128 29.2958 59.8075L29.2938 59.6868Z" fill="#A7030E"/>
<path d="M33.6663 60.4603L33.1097 58.0448L33.9557 57.8499C34.1866 57.78 34.4336 57.7852 34.6614 57.8646C34.7501 57.9044 34.8277 57.9655 34.8872 58.0425C34.9467 58.1194 34.9863 58.2099 35.0025 58.3058C35.0302 58.4164 35.0234 58.5328 34.9832 58.6394C34.9423 58.7446 34.8696 58.8344 34.7752 58.8963C34.8977 58.8957 35.0165 58.9381 35.111 59.0162C35.2073 59.0991 35.273 59.2119 35.2976 59.3366C35.327 59.4342 35.3333 59.5374 35.3158 59.6379C35.2983 59.7384 35.2576 59.8334 35.1969 59.9154C35.0424 60.0885 34.8339 60.2043 34.6053 60.2439L33.6663 60.4603ZM33.8406 58.9421L34.2089 58.8572C34.4588 58.795 34.5613 58.666 34.5163 58.4702C34.5102 58.4251 34.4935 58.3821 34.4674 58.3448C34.4413 58.3074 34.4066 58.2769 34.3663 58.2558C34.2634 58.2214 34.1522 58.2204 34.0487 58.253L33.7003 58.3333L33.8406 58.9421ZM33.9215 59.2938L34.0719 59.9458L34.4981 59.8476C34.5981 59.8307 34.6887 59.7785 34.7535 59.7005C34.7798 59.6643 34.7975 59.6226 34.8054 59.5786C34.8132 59.5346 34.811 59.4893 34.7988 59.4463C34.7478 59.2251 34.6074 59.1392 34.3777 59.1887L33.9215 59.2938Z" fill="#A7030E"/>
<path d="M40.5448 57.2535C40.5908 57.364 40.6138 57.4827 40.6122 57.6023C40.6106 57.7219 40.5845 57.84 40.5356 57.9492C40.4215 58.1768 40.2276 58.3545 39.9908 58.4484C39.8651 58.5128 39.7263 58.5478 39.5851 58.5508C39.4438 58.5538 39.3037 58.5246 39.1753 58.4656C38.9213 58.3459 38.7171 58.116 38.5629 57.7759L38.5004 57.6379C38.4069 57.4424 38.3573 57.2288 38.355 57.0121C38.3531 56.8242 38.4072 56.6399 38.5105 56.4828C38.6403 56.3052 38.8194 56.1695 39.0255 56.0926C39.2317 56.0156 39.4559 56.0008 39.6703 56.0499C39.9047 56.1272 40.0994 56.2932 40.2127 56.5124L39.7475 56.7232C39.6946 56.606 39.6 56.5126 39.482 56.4614C39.3595 56.4296 39.2295 56.446 39.1188 56.5073C39.0494 56.5336 38.9879 56.5772 38.9402 56.634C38.8925 56.6908 38.8601 56.7589 38.8461 56.8317C38.8288 57.0292 38.869 57.2274 38.9618 57.4026L39.0392 57.5731C39.1096 57.7644 39.232 57.9323 39.3926 58.0578C39.4564 58.0969 39.5294 58.1185 39.6042 58.1203C39.6791 58.1222 39.7531 58.1043 39.8188 58.0685C39.9387 58.025 40.0377 57.9377 40.0959 57.8241C40.1365 57.7065 40.1307 57.5778 40.0796 57.4643L40.5448 57.2535Z" fill="#A7030E"/>
<path d="M43.0749 55.5199L42.2363 56.0283L42.5805 56.596L43.5646 55.9993L43.7775 56.3502L42.3567 57.2116L41.0714 55.0921L42.4893 54.2324L42.7037 54.5861L41.7227 55.1811L42.029 55.6862L42.8675 55.1778L43.0749 55.5199Z" fill="#A7030E"/>
<path d="M44.9831 54.422L45.5209 55.1101L45.1184 55.4246L43.5922 53.4713L44.3542 52.876C44.4854 52.7689 44.6392 52.693 44.804 52.6541C44.9488 52.6202 45.1004 52.63 45.2396 52.6821C45.38 52.7365 45.5025 52.829 45.5932 52.9492C45.6639 53.0316 45.7148 53.1291 45.7421 53.2342C45.7693 53.3393 45.7722 53.4492 45.7504 53.5556C45.6872 53.7957 45.5402 54.0053 45.3358 54.1463L44.9831 54.422ZM44.7284 54.096L45.0879 53.815C45.1803 53.7525 45.2461 53.658 45.2727 53.5497C45.2799 53.4997 45.2762 53.4487 45.2617 53.4003C45.2472 53.3519 45.2223 53.3073 45.1887 53.2695C45.1576 53.2257 45.118 53.1885 45.0724 53.16C45.0268 53.1315 44.9761 53.1123 44.923 53.1035C44.8687 53.097 44.8137 53.1018 44.7613 53.1175C44.7088 53.1332 44.6602 53.1595 44.6183 53.1947L44.2494 53.4829L44.7284 54.096Z" fill="#A7030E"/>
<path d="M46.0789 51.4311L46.4375 51.0676L47.9098 52.5203L48.6069 51.8138L47.1346 50.361L47.4946 49.9963L48.9669 51.449L49.2047 51.2079L49.8983 51.9399L49.5636 52.2793L49.1381 51.8596L47.8431 53.1719L46.0789 51.4311Z" fill="#A7030E"/>
<path d="M50.8668 49.8294L50.5489 50.2292L48.6082 48.6875L48.9258 48.2876L50.8668 49.8294Z" fill="#A7030E"/>
<path d="M26.3059 40.4186L26.3725 40.4346C27.4949 40.704 29.085 41.2951 29.7397 41.557V40.9397H31.4233C31.4359 39.5324 31.5296 38.1271 31.7039 36.7306C31.8253 35.8075 31.9573 34.9369 32.0862 34.087C32.255 32.9737 32.4184 31.8959 32.5457 30.7819C32.7253 29.2105 32.7702 27.0218 32.7702 26.1239L32.4754 25.9397C32.4577 25.9286 32.4428 25.9135 32.432 25.8956C32.4212 25.8777 32.4148 25.8575 32.4133 25.8366C32.4117 25.8157 32.4151 25.7948 32.4232 25.7755C32.4313 25.7562 32.4438 25.7391 32.4598 25.7255L33.4063 24.921C33.4304 24.9005 33.4609 24.8893 33.4925 24.8893H34.7995C34.83 24.8893 34.8595 24.8997 34.8832 24.9189L35.8802 25.726C35.8966 25.7393 35.9097 25.7564 35.9182 25.7758C35.9268 25.7952 35.9305 25.8163 35.9293 25.8375C35.928 25.8586 35.9216 25.8792 35.9108 25.8974C35.9 25.9156 35.8849 25.9309 35.867 25.9422L35.5762 26.1239L35.5381 26.139C35.5381 27.037 35.583 29.3023 35.7626 30.8737C35.8899 31.9877 36.0533 33.0655 36.2221 34.1788C36.351 35.0287 36.483 35.8993 36.6044 36.8224C36.7779 38.182 36.8716 39.5506 36.885 40.9211L38.5366 40.9397C39.3753 40.1177 40.1664 39.2868 40.8764 38.4682C43.5326 35.4059 47.0285 30.7011 46.7257 25.2206C46.5743 22.3789 45.3887 19.7143 43.4239 17.7995C41.3468 15.7663 38.5401 14.7296 35.5219 14.8803C32.0686 15.0536 29.45 17.378 28.0638 18.946C26.6819 17.3741 24.0687 15.0435 20.6154 14.8597C17.6003 14.7012 14.7893 15.7282 12.7068 17.7557C10.7376 19.665 9.54602 22.3263 9.38816 25.1673C9.07164 30.6471 12.5565 35.3622 15.2052 38.4323C15.5331 38.8125 15.8772 39.1947 16.2377 39.5788C20.8769 39.1141 24.8575 40.0706 26.3059 40.4186Z" fill="white"/>
<path d="M32.5457 47.3933C34.5111 47.1886 35.913 46.2897 36.3619 45.7097C35.9838 45.916 34.6327 46.3212 32.1172 46.4205C31.5917 46.8138 31.0779 47.1855 30.5829 47.5308C31.268 47.5076 31.9262 47.4579 32.5457 47.3933Z" fill="white"/>
<path d="M15.2047 42.0059C12.2415 41.6467 8.80697 43.0534 7.46008 43.8017C10.6589 43.0161 14.419 43.4089 15.7659 43.8017C17.1128 44.1946 20.031 45.2047 23.2299 46.4394C23.6796 46.613 24.133 46.7631 24.5899 46.8896C23.1291 45.8203 21.5501 44.5592 20.0183 43.2134C18.4677 42.6202 16.8517 42.2148 15.2047 42.0059Z" fill="white"/>
<path d="M16.2377 39.5789C16.1927 39.5833 16.1476 39.588 16.1025 39.5928C12.2863 39.9968 8.60107 42.1182 7.23547 43.1283C7.40836 43.1283 7.97397 42.8953 9.22966 42.3781C9.6045 42.2237 10.0408 42.044 10.5466 41.8376C12.473 41.0513 14.4268 40.623 17.4885 40.8615C17.0571 40.4352 16.6386 40.0067 16.2377 39.5789Z" fill="white"/>
<path d="M24.5897 46.8896C25.5767 47.6121 26.5096 48.2472 27.3376 48.7619L28.0268 49.1893L28.7174 48.7629C29.2939 48.4067 29.9216 47.9923 30.5828 47.531C28.7079 47.5946 26.6309 47.4601 24.5897 46.8896Z" fill="white"/>
<path d="M38.9995 42.4549V40.9397H38.5366C36.916 42.517 35.2135 44.008 33.4362 45.4064C33.7572 45.4294 34.0779 45.4377 34.3976 45.4293C36.5302 45.3731 39.3362 44.363 41.7493 43.4089C43.6799 42.6457 45.3598 41.108 45.9584 40.4346C45.5094 40.6778 44.1176 41.2988 42.1422 41.8376C40.1667 42.3763 39.2239 42.4736 38.9995 42.4549Z" fill="white"/>
<path d="M22.1074 41.5568C21.3279 41.3534 18.7976 40.9632 17.4886 40.8613C18.2966 41.6597 19.1498 42.4501 20.0183 43.2132C20.9696 43.5698 21.7873 43.9399 22.4591 44.2439L22.4592 44.244L22.46 44.2444C22.7427 44.3723 22.9998 44.4886 23.2298 44.5873C24.8012 45.2607 27.7195 46.4953 31.4234 46.4392C31.6638 46.4356 31.8951 46.4294 32.1173 46.4205C32.5504 46.0962 32.9914 45.7573 33.4363 45.4062C30.741 45.2132 28.0241 43.9871 25.738 42.9555C24.3288 42.3194 22.887 41.7601 22.1074 41.5568Z" fill="white"/>
<path d="M32.8263 26.6555L6.44983 23.2883V29.9666L32.8263 27.8341V26.6555Z" fill="#A7030E"/>
<path d="M52.3001 24.6353L35.3337 26.6849V27.7999L52.3001 29.7422V24.6353Z" fill="#A7030E"/>
<path d="M34.0001 26.2632H33.2705V28.059H34.0001V26.2632Z" fill="white"/>
<path d="M35.1226 26.2632H34.3931V28.059H35.1226V26.2632Z" fill="white"/>
</g>
<defs>
<clipPath id="clip0_6_1627">
<rect width="56" height="61.1699" fill="white"/>
</clipPath>
</defs>
</svg>
