<svg width="12" height="13" viewBox="0 0 12 13" fill="none" xmlns="http://www.w3.org/2000/svg">
<path d="M11.9824 9.1465L11.4374 11.5092C11.3609 11.8432 11.0673 12.0769 10.7234 12.0769C4.80983 12.0765 0 7.26664 0 1.3528C0 1.00917 0.233671 0.715237 0.56771 0.639058L2.93043 0.0940851C3.27453 0.0143431 3.62612 0.192954 3.76911 0.518813L4.85952 3.06202C4.98699 3.36158 4.90101 3.7106 4.64903 3.9164L3.38704 4.9297C4.18352 6.5522 5.50271 7.87138 7.12567 8.66833L8.1589 7.40728C8.36254 7.1546 8.71418 7.06717 9.01374 7.19691L11.557 8.28709C11.8628 8.448 12.0621 8.80428 11.9824 9.1465Z" fill="white"/>
</svg>
